HIERARCHY
ROOT Hips
{
	OFFSET 0.000000 0.000000 0.000000
	CHANNELS 6 Xposition Yposition Zposition Xrotation Yrotation Zrotation
	JOINT Chest
	{
		OFFSET 0.000000 0.009282 11.569106
		CHANNELS 6 Xposition Yposition Zposition Xrotation Yrotation Zrotation
		JOINT Chest2
		{
			OFFSET 0.000000 -0.016863 9.269641
			CHANNELS 6 Xposition Yposition Zposition Xrotation Yrotation Zrotation
			JOINT Chest3
			{
				OFFSET 0.000000 0.000000 8.374491
				CHANNELS 6 Xposition Yposition Zposition Xrotation Yrotation Zrotation
				JOINT Chest4
				{
					OFFSET 0.000000 0.000000 8.374493
					CHANNELS 6 Xposition Yposition Zposition Xrotation Yrotation Zrotation
					JOINT Neck
					{
						OFFSET 0.000000 -0.000001 12.152554
						CHANNELS 6 Xposition Yposition Zposition Xrotation Yrotation Zrotation
						JOINT Head
						{
							OFFSET 0.000000 -0.040100 7.802319
							CHANNELS 6 Xposition Yposition Zposition Xrotation Yrotation Zrotation
							End Site
							{
								OFFSET 0.000000 -0.020946 14.853096
							}
						}
					}
					JOINT RightCollar
					{
						OFFSET -2.894404 0.000000 6.791374
						CHANNELS 6 Xposition Yposition Zposition Xrotation Yrotation Zrotation
						JOINT RightShoulder
						{
							OFFSET -13.574684 0.000000 0.000000
							CHANNELS 6 Xposition Yposition Zposition Xrotation Yrotation Zrotation
							JOINT RightElbow
							{
								OFFSET -23.923903 0.000000 0.000000
								CHANNELS 6 Xposition Yposition Zposition Xrotation Yrotation Zrotation
								JOINT RightWrist
								{
									OFFSET -19.846718 -0.012765 0.000000
									CHANNELS 6 Xposition Yposition Zposition Xrotation Yrotation Zrotation
									End Site
									{
										OFFSET -14.973145 0.000000 0.000000
									}
								}
							}
						}
					}
					JOINT LeftCollar
					{
						OFFSET 2.894404 0.000000 6.791374
						CHANNELS 6 Xposition Yposition Zposition Xrotation Yrotation Zrotation
						JOINT LeftShoulder
						{
							OFFSET 13.574684 0.000000 0.000000
							CHANNELS 6 Xposition Yposition Zposition Xrotation Yrotation Zrotation
							JOINT LeftElbow
							{
								OFFSET 23.923903 0.000000 0.000000
								CHANNELS 6 Xposition Yposition Zposition Xrotation Yrotation Zrotation
								JOINT LeftWrist
								{
									OFFSET 19.846718 -0.012765 0.000000
									CHANNELS 6 Xposition Yposition Zposition Xrotation Yrotation Zrotation
									End Site
									{
										OFFSET 14.973145 0.000000 0.000000
									}
								}
							}
						}
					}
				}
			}
		}
	}
	JOINT RightHip
	{
		OFFSET -9.469263 -0.004642 0.045487
		CHANNELS 6 Xposition Yposition Zposition Xrotation Yrotation Zrotation
		JOINT RightKnee
		{
			OFFSET 0.000000 -0.002666 -40.478676
			CHANNELS 6 Xposition Yposition Zposition Xrotation Yrotation Zrotation
			JOINT RightAnkle
			{
				OFFSET 0.000000 -0.049110 -35.224068
				CHANNELS 6 Xposition Yposition Zposition Xrotation Yrotation Zrotation
				JOINT RightToe
				{
					OFFSET 0.000000 -12.539530 -6.151390
					CHANNELS 6 Xposition Yposition Zposition Xrotation Yrotation Zrotation
					End Site
					{
						OFFSET 0.000000 -5.044995 -1.291870
					}
				}
			}
		}
	}
	JOINT LeftHip
	{
		OFFSET 9.469263 -0.004642 0.045487
		CHANNELS 6 Xposition Yposition Zposition Xrotation Yrotation Zrotation
		JOINT LeftKnee
		{
			OFFSET 0.000000 -0.002666 -40.478676
			CHANNELS 6 Xposition Yposition Zposition Xrotation Yrotation Zrotation
			JOINT LeftAnkle
			{
				OFFSET 0.000000 -0.049110 -35.224068
				CHANNELS 6 Xposition Yposition Zposition Xrotation Yrotation Zrotation
				JOINT LeftToe
				{
					OFFSET 0.000000 -12.539530 -6.151390
					CHANNELS 6 Xposition Yposition Zposition Xrotation Yrotation Zrotation
					End Site
					{
						OFFSET 0.000000 -5.044995 -1.291870
					}
				}
			}
		}
	}
}
MOTION
Frames: 4
Frame Time: 0.016667
12.913616 22.773077 8.487491 26.613402 40.431308 -127.036533 0.000000 0.009281 11.569105 17.667200 -1.301807 -1.017989 -0.000000 -0.016864 9.269640 7.854927 -0.540244 -0.504065 -0.000004 -0.000001 8.374492 7.854928 -0.540242 -0.504064 -0.000001 0.000003 8.374493 5.891605 -0.398781 -0.385064 0.000001 -0.000001 12.152548 20.202161 -0.209183 -0.946976 0.000000 -0.040098 7.802327 1.334932 -0.094803 -1.795387 -2.894403 0.000000 6.791371 -4.594736 -4.048377 -4.054565 -13.574677 0.000004 -0.000001 31.908800 -35.990750 21.963141 -23.923903 0.000002 -0.000000 61.102572 14.903809 57.286740 -19.846716 -0.012771 -0.000001 -56.967398 32.071806 94.895370 2.894404 0.000002 6.791375 -7.265725 10.927970 -2.809912 13.574686 -0.000001 0.000008 23.599576 36.826276 -11.553042 23.923893 -0.000000 0.000000 62.074569 5.094569 -56.016540 19.846714 -0.012770 0.000000 -32.960157 -33.774582 -94.428800 -9.469263 -0.004642 0.045485 -50.552170 5.767055 -6.417703 0.000673 -0.002780 -40.478302 8.917121 2.774328 -14.568290 -0.000302 -0.049760 -35.222359 41.400358 -10.977380 6.578128 -0.000001 -12.539529 -6.151387 -0.015622 -0.024547 -0.009128 9.469263 -0.004642 0.045487 -52.767805 11.673333 15.214400 -0.001585 -0.003255 -40.478127 9.495100 7.113720 36.628177 -0.000383 -0.050233 -35.221931 52.799425 8.427706 8.449642 0.000000 -12.539536 -6.151372 -0.015238 -0.009559 -0.008324 
12.912550 22.770735 8.487908 26.621747 40.436164 -127.037721 -0.000001 0.009282 11.569105 17.666981 -1.299834 -1.015933 -0.000001 -0.016864 9.269638 7.854559 -0.539727 -0.503032 -0.000001 0.000002 8.374492 7.854557 -0.539725 -0.503029 0.000002 -0.000002 8.374496 5.891328 -0.398408 -0.384279 -0.000000 0.000000 12.152554 20.187172 -0.213818 -0.947565 0.000001 -0.040100 7.802316 1.307051 -0.102902 -1.797893 -2.894406 0.000002 6.791369 -4.596226 -4.044873 -4.061850 -13.574682 -0.000000 0.000000 31.919455 -35.991853 21.973895 -23.923897 -0.000004 -0.000003 61.108104 14.903193 57.284240 -19.846710 -0.012769 -0.000004 -56.962897 32.069459 94.893355 2.894403 0.000003 6.791370 -7.266432 10.928116 -2.817677 13.574684 0.000002 0.000006 23.591905 36.828776 -11.545683 23.923906 -0.000001 -0.000003 62.091132 5.089927 -56.016553 19.846710 -0.012769 0.000004 -32.970409 -33.775617 -94.431948 -9.469264 -0.004642 0.045486 -50.548430 5.765469 -6.403299 0.000671 -0.002780 -40.478302 8.920179 2.783163 -14.566126 -0.000301 -0.049758 -35.222363 41.424418 -10.999963 6.589865 -0.000007 -12.539535 -6.151385 -0.020534 -0.019531 -0.005430 9.469260 -0.004642 0.045486 -52.760090 11.683248 15.223064 -0.001582 -0.003255 -40.478123 9.490606 7.092110 36.609384 -0.000384 -0.050225 -35.221931 52.803550 8.441629 8.467970 0.000002 -12.539529 -6.151380 -0.014975 -0.011255 -0.010202 
12.912756 22.770838 8.488595 26.631102 40.443394 -127.038240 -0.000000 0.009282 11.569107 17.667299 -1.299721 -1.019385 0.000000 -0.016862 9.269642 7.854220 -0.538398 -0.504658 -0.000001 -0.000000 8.374490 7.854218 -0.538398 -0.504659 0.000000 0.000001 8.374489 5.891072 -0.397389 -0.385489 0.000001 -0.000004 12.152555 20.172069 -0.216545 -0.945046 0.000001 -0.040101 7.802320 1.278937 -0.108453 -1.794138 -2.894404 -0.000003 6.791372 -4.593309 -4.043620 -4.061016 -13.574684 0.000001 -0.000008 31.907802 -35.997009 21.975806 -23.923899 0.000000 0.000001 61.126717 14.893255 57.277157 -19.846718 -0.012768 0.000003 -56.954673 32.066027 94.893191 2.894404 -0.000001 6.791369 -7.252513 10.927154 -2.826121 13.574684 -0.000001 -0.000000 23.571956 36.839039 -11.532461 23.923899 -0.000003 0.000001 62.098570 5.095949 -56.012001 19.846714 -0.012769 -0.000002 -32.978271 -33.773059 -94.441770 -9.469263 -0.004641 0.045487 -50.532017 5.753117 -6.417225 0.000670 -0.002778 -40.478302 8.913435 2.805814 -14.544218 -0.000302 -0.049764 -35.222351 41.504147 -11.112208 6.691138 -0.000002 -12.539528 -6.151384 -0.039866 0.024085 0.022279 9.469263 -0.004641 0.045487 -52.752433 11.688776 15.223016 -0.001580 -0.003255 -40.478127 9.492915 7.079260 36.588015 -0.000389 -0.050239 -35.221935 52.805251 8.458969 8.478649 0.000002 -12.539522 -6.151383 -0.011291 -0.007594 -0.008699 
12.911678 22.768883 8.489272 26.637649 40.448783 -127.036464 0.000002 0.009283 11.569106 17.666790 -1.299058 -1.025680 -0.000001 -0.016863 9.269640 7.853503 -0.536609 -0.506987 -0.000001 0.000001 8.374490 7.853497 -0.536610 -0.506990 0.000002 -0.000001 8.374493 5.890531 -0.396019 -0.387215 -0.000003 0.000001 12.152557 20.159747 -0.220628 -0.944864 -0.000000 -0.040097 7.802312 1.255999 -0.115808 -1.795069 -2.894407 0.000002 6.791374 -4.563895 -4.042299 -4.054019 -13.574684 -0.000002 0.000004 31.868102 -36.004639 21.984268 -23.923903 -0.000002 0.000002 61.148020 14.879833 57.267096 -19.846720 -0.012759 0.000010 -56.945620 32.064033 94.891333 2.894401 0.000003 6.791376 -7.239370 10.923371 -2.831753 13.574686 -0.000002 0.000005 23.557468 36.852057 -11.520616 23.923893 0.000001 -0.000000 62.105845 5.103134 -56.002449 19.846720 -0.012769 0.000002 -32.982826 -33.775910 -94.457807 -9.469259 -0.004641 0.045488 -50.501541 5.743546 -6.450671 0.000670 -0.002778 -40.478306 8.884813 2.828214 -14.512200 -0.000309 -0.049755 -35.222351 41.495144 -11.100201 6.680200 0.000011 -12.539536 -6.151396 -0.022011 0.008910 0.011232 9.469266 -0.004641 0.045487 -52.742335 11.685225 15.210205 -0.001577 -0.003254 -40.478123 9.490357 7.083109 36.585615 -0.000389 -0.050235 -35.221928 52.807051 8.470432 8.478417 0.000000 -12.539529 -6.151387 -0.006427 -0.006098 -0.005823 
